# xmcd
#
# Track frame offsets:
#	150
#	14753
#	34548
#	57736
#	71840
#	90517
#	109270
#	122247
#	131004
#	148763
#	161468
#	172056
#	194313
#	216595
#	233156
#	252289
#	268348
#	289724
#	316497
#	326824
#
# Disc length: 4545 seconds
#
# Revision: 3
# Processed by: cddbd v1.5.1PL0 Copyright (c) Steve Scherf et al.
# Submitted via: EasyCDDAExtractor 5.0.6
#
DISCID=4511bf14
DTITLE=Various Artist - LateNightTales - The Flaming Lips
DYEAR=2005
DGENRE=Indie
TTITLE0=Bjork - Unravel
TTITLE1=Miles Davis - My Ship
TTITLE2=Chris Bell - Speed of Sound
TTITLE3=Faust - It's A Bit of a Pain
TTITLE4=Roxy Music - 2HB
TTITLE5=Alfie - People
TTITLE6=Aphex Twin - Film
TTITLE7=Mice Parade - Galileo (Edit)
TTITLE8=Chameleons - Up The Down Escalator
TTITLE9=The Flaming Lips - Seven Nation Army
TTITLE10=The Chemical Brothers - Playground For A Wedgeless Firm
TTITLE11=Love And Rockets - Saudade
TTITLE12=Lush - Monochrome
TTITLE13=Psychedelic Furs - Sleep Comes Down
TTITLE14=Nick Drake - River Man
TTITLE15=Sebadoh - On Fire
TTITLE16=Radiohead - Pyramid Song
TTITLE17=10cc - I'm Not In Love
TTITLE18=Brian Eno - Another Green World
TTITLE19=David Shrigley - The Jist
EXTD=
EXTT0=
EXTT1=
EXTT2=
EXTT3=
EXTT4=
EXTT5=
EXTT6=
EXTT7=
EXTT8=
EXTT9=
EXTT10=
EXTT11=
EXTT12=
EXTT13=
EXTT14=
EXTT15=
EXTT16=
EXTT17=
EXTT18=
EXTT19=
PLAYORDER=
